<svg xmlns="http://www.w3.org/2000/svg" viewBox="0 0 100 100" fill="#2553A1">
  <circle cx="50" cy="50" r="45" fill="#E3E6EA" />
  <path d="M50 20c-5.5 0-10 4.5-10 10s4.5 10 10 10 10-4.5 10-10-4.5-10-10-10zm-15 35c0-8.3 6.7-15 15-15s15 6.7 15 15v10H35V55z" />
  <path d="M35 60v5h30v-5c0-8.3-6.7-15-15-15s-15 6.7-15 15zm30 10H35v5c0 2.8 2.2 5 5 5h20c2.8 0 5-2.2 5-5v-5z" />
  <path d="M35 45c-2.8 0-5-2.2-5-5s2.2-5 5-5 5 2.2 5 5-2.2 5-5 5zm30 0c-2.8 0-5-2.2-5-5s2.2-5 5-5 5 2.2 5 5-2.2 5-5 5z" fill="#22B07D" />
  <path d="M42 78c2-4 3-6 8-6s6 2 8 6" stroke="#22B07D" stroke-width="2" stroke-linecap="round" />
</svg>
