<svg xmlns="http://www.w3.org/2000/svg" viewBox="0 0 100 100" fill="#2553A1">
  <circle cx="50" cy="50" r="45" fill="#E3E6EA" />
  <path d="M50 20c-5.5 0-10 4.5-10 10s4.5 10 10 10 10-4.5 10-10-4.5-10-10-10zm-15 35c0-8.3 6.7-15 15-15s15 6.7 15 15v10H35V55z" />
  <path d="M50 15l-5 10h10l-5-10zm0 70V65m-15-10l-5-5m35 5l5-5" stroke="#2553A1" stroke-width="2" stroke-linecap="round" />
  <path d="M35 60v5h30v-5c0-8.3-6.7-15-15-15s-15 6.7-15 15zm30 10H35v5c0 2.8 2.2 5 5 5h20c2.8 0 5-2.2 5-5v-5z" />
  <circle cx="65" cy="40" r="3" fill="#22B07D" />
  <circle cx="35" cy="40" r="3" fill="#22B07D" />
</svg>
