<svg xmlns="http://www.w3.org/2000/svg" viewBox="0 0 100 100" fill="#2553A1">
  <circle cx="50" cy="50" r="45" fill="#E3E6EA" />
  <path d="M50 20c-5.5 0-10 4.5-10 10s4.5 10 10 10 10-4.5 10-10-4.5-10-10-10zm-15 35c0-8.3 6.7-15 15-15s15 6.7 15 15v10H35V55z" />
  <path d="M35 60v5h30v-5c0-8.3-6.7-15-15-15s-15 6.7-15 15zm30 10H35v5c0 2.8 2.2 5 5 5h20c2.8 0 5-2.2 5-5v-5z" />
  <path d="M20 40l15 5M80 40l-15 5" stroke="#22B07D" stroke-width="2" stroke-linecap="round" />
  <path d="M75 30c0 1.7-1.3 3-3 3s-3-1.3-3-3 1.3-3 3-3 3 1.3 3 3zM31 30c0 1.7-1.3 3-3 3s-3-1.3-3-3 1.3-3 3-3 3 1.3 3 3z" fill="#22B07D" />
</svg>
