<svg xmlns="http://www.w3.org/2000/svg" viewBox="0 0 100 100" fill="#2553A1">
  <circle cx="50" cy="50" r="45" fill="#E3E6EA" />
  <path d="M50 20c-5.5 0-10 4.5-10 10s4.5 10 10 10 10-4.5 10-10-4.5-10-10-10zm-15 35c0-8.3 6.7-15 15-15s15 6.7 15 15v10H35V55z" />
  <path d="M65 60v5H35v-5c0-8.3 6.7-15 15-15s15 6.7 15 15zm-30 10h30v5c0 2.8-2.2 5-5 5H40c-2.8 0-5-2.2-5-5v-5z" />
  <path d="M70 50h-5c0-8.3-6.7-15-15-15s-15 6.7-15 15h-5c0-11 9-20 20-20s20 9 20 20z" />
  <path d="M60 35l5-10M40 35l-5-10" stroke="#2553A1" stroke-width="2" stroke-linecap="round" />
</svg>
